<mxfile host="65bd71144e">
    <diagram id="PV8DR9O7Qa6q8P4uxZd3" name="Highlevel World">
        <mxGraphModel dx="1079" dy="613" grid="1" gridSize="10" guides="1" tooltips="1" connect="1" arrows="1" fold="1" page="1" pageScale="1" pageWidth="850" pageHeight="1100" math="0" shadow="0">
            <root>
                <mxCell id="0"/>
                <mxCell id="1" parent="0"/>
                <mxCell id="3" value="World" style="swimlane;whiteSpace=wrap;html=1;" parent="1" vertex="1">
                    <mxGeometry x="50" y="50" width="740" height="340" as="geometry"/>
                </mxCell>
                <mxCell id="4" value="Terrain" style="swimlane;whiteSpace=wrap;html=1;" parent="3" vertex="1">
                    <mxGeometry x="10" y="30" width="190" height="300" as="geometry"/>
                </mxCell>
                <mxCell id="5" value="Objects" style="swimlane;whiteSpace=wrap;html=1;" parent="3" vertex="1">
                    <mxGeometry x="210" y="30" width="520" height="300" as="geometry">
                        <mxRectangle x="270" y="30" width="80" height="30" as="alternateBounds"/>
                    </mxGeometry>
                </mxCell>
                <mxCell id="6" value="Rails" style="swimlane;whiteSpace=wrap;html=1;" parent="5" vertex="1">
                    <mxGeometry x="5" y="30" width="115" height="90" as="geometry">
                        <mxRectangle x="5" y="30" width="70" height="30" as="alternateBounds"/>
                    </mxGeometry>
                </mxCell>
                <mxCell id="11" value="Cities" style="swimlane;whiteSpace=wrap;html=1;" parent="5" vertex="1">
                    <mxGeometry x="130" y="30" width="130" height="90" as="geometry">
                        <mxRectangle x="5" y="30" width="70" height="30" as="alternateBounds"/>
                    </mxGeometry>
                </mxCell>
                <mxCell id="12" value="Industries" style="swimlane;whiteSpace=wrap;html=1;" parent="5" vertex="1">
                    <mxGeometry x="270" y="30" width="240" height="90" as="geometry">
                        <mxRectangle x="5" y="30" width="70" height="30" as="alternateBounds"/>
                    </mxGeometry>
                </mxCell>
                <mxCell id="13" value="Companies" style="swimlane;whiteSpace=wrap;html=1;" parent="5" vertex="1">
                    <mxGeometry x="130" y="130" width="380" height="160" as="geometry">
                        <mxRectangle x="5" y="30" width="70" height="30" as="alternateBounds"/>
                    </mxGeometry>
                </mxCell>
                <mxCell id="21" value="Enviroment" style="swimlane;whiteSpace=wrap;html=1;" parent="5" vertex="1">
                    <mxGeometry x="5" y="130" width="115" height="160" as="geometry">
                        <mxRectangle x="5" y="30" width="70" height="30" as="alternateBounds"/>
                    </mxGeometry>
                </mxCell>
            </root>
        </mxGraphModel>
    </diagram>
    <diagram id="k3h_78j-g-G8LuxN0GKx" name="Biomes">
        <mxGraphModel dx="1004" dy="441" grid="1" gridSize="10" guides="1" tooltips="1" connect="1" arrows="1" fold="1" page="1" pageScale="1" pageWidth="850" pageHeight="1100" math="0" shadow="0">
            <root>
                <mxCell id="0"/>
                <mxCell id="1" parent="0"/>
                <mxCell id="YPkfwmVV87nAmRGDqk8z-1" value="Aquatic" style="rounded=0;whiteSpace=wrap;html=1;" vertex="1" parent="1">
                    <mxGeometry x="90" y="10" width="120" height="60" as="geometry"/>
                </mxCell>
                <mxCell id="YPkfwmVV87nAmRGDqk8z-2" value="Non Aquatic" style="rounded=0;whiteSpace=wrap;html=1;" vertex="1" parent="1">
                    <mxGeometry x="400" y="100" width="120" height="60" as="geometry"/>
                </mxCell>
                <mxCell id="YPkfwmVV87nAmRGDqk8z-3" value="Shores" style="whiteSpace=wrap;html=1;aspect=fixed;" vertex="1" parent="1">
                    <mxGeometry x="10" y="110" width="80" height="80" as="geometry"/>
                </mxCell>
                <mxCell id="YPkfwmVV87nAmRGDqk8z-5" value="Ocean" style="whiteSpace=wrap;html=1;aspect=fixed;" vertex="1" parent="1">
                    <mxGeometry x="110" y="110" width="80" height="80" as="geometry"/>
                </mxCell>
                <mxCell id="YPkfwmVV87nAmRGDqk8z-6" value="Deep Ocean" style="whiteSpace=wrap;html=1;aspect=fixed;" vertex="1" parent="1">
                    <mxGeometry x="210" y="110" width="80" height="80" as="geometry"/>
                </mxCell>
                <mxCell id="YPkfwmVV87nAmRGDqk8z-8" value="" style="endArrow=classic;html=1;exitX=0.75;exitY=1;exitDx=0;exitDy=0;entryX=0.25;entryY=0;entryDx=0;entryDy=0;" edge="1" parent="1" source="YPkfwmVV87nAmRGDqk8z-1" target="YPkfwmVV87nAmRGDqk8z-6">
                    <mxGeometry width="50" height="50" relative="1" as="geometry">
                        <mxPoint x="170" y="70" as="sourcePoint"/>
                        <mxPoint x="230" y="110" as="targetPoint"/>
                    </mxGeometry>
                </mxCell>
                <mxCell id="YPkfwmVV87nAmRGDqk8z-9" value="" style="endArrow=classic;html=1;exitX=0.5;exitY=1;exitDx=0;exitDy=0;entryX=0.5;entryY=0;entryDx=0;entryDy=0;" edge="1" parent="1" source="YPkfwmVV87nAmRGDqk8z-1" target="YPkfwmVV87nAmRGDqk8z-5">
                    <mxGeometry width="50" height="50" relative="1" as="geometry">
                        <mxPoint x="370" y="170" as="sourcePoint"/>
                        <mxPoint x="420" y="120" as="targetPoint"/>
                    </mxGeometry>
                </mxCell>
                <mxCell id="YPkfwmVV87nAmRGDqk8z-10" value="" style="endArrow=classic;html=1;exitX=0.25;exitY=1;exitDx=0;exitDy=0;entryX=0.75;entryY=0;entryDx=0;entryDy=0;" edge="1" parent="1" source="YPkfwmVV87nAmRGDqk8z-1" target="YPkfwmVV87nAmRGDqk8z-3">
                    <mxGeometry width="50" height="50" relative="1" as="geometry">
                        <mxPoint x="370" y="170" as="sourcePoint"/>
                        <mxPoint x="420" y="120" as="targetPoint"/>
                    </mxGeometry>
                </mxCell>
                <mxCell id="YPkfwmVV87nAmRGDqk8z-76" value="Biome" style="swimlane;fontStyle=0;childLayout=stackLayout;horizontal=1;startSize=30;horizontalStack=0;resizeParent=1;resizeParentMax=0;resizeLast=0;collapsible=1;marginBottom=0;whiteSpace=wrap;html=1;" vertex="1" parent="1">
                    <mxGeometry x="40" y="320" width="140" height="150" as="geometry">
                        <mxRectangle x="70" y="310" width="70" height="30" as="alternateBounds"/>
                    </mxGeometry>
                </mxCell>
                <mxCell id="YPkfwmVV87nAmRGDqk8z-105" value="Height" style="text;strokeColor=none;fillColor=none;align=left;verticalAlign=middle;spacingLeft=4;spacingRight=4;overflow=hidden;points=[[0,0.5],[1,0.5]];portConstraint=eastwest;rotatable=0;whiteSpace=wrap;html=1;" vertex="1" parent="YPkfwmVV87nAmRGDqk8z-76">
                    <mxGeometry y="30" width="140" height="30" as="geometry"/>
                </mxCell>
                <mxCell id="YPkfwmVV87nAmRGDqk8z-78" value="Temperature" style="text;strokeColor=none;fillColor=none;align=left;verticalAlign=middle;spacingLeft=4;spacingRight=4;overflow=hidden;points=[[0,0.5],[1,0.5]];portConstraint=eastwest;rotatable=0;whiteSpace=wrap;html=1;" vertex="1" parent="YPkfwmVV87nAmRGDqk8z-76">
                    <mxGeometry y="60" width="140" height="30" as="geometry"/>
                </mxCell>
                <mxCell id="YPkfwmVV87nAmRGDqk8z-79" value="Moisture" style="text;strokeColor=none;fillColor=none;align=left;verticalAlign=middle;spacingLeft=4;spacingRight=4;overflow=hidden;points=[[0,0.5],[1,0.5]];portConstraint=eastwest;rotatable=0;whiteSpace=wrap;html=1;" vertex="1" parent="YPkfwmVV87nAmRGDqk8z-76">
                    <mxGeometry y="90" width="140" height="30" as="geometry"/>
                </mxCell>
                <mxCell id="YPkfwmVV87nAmRGDqk8z-80" value="Ground Type" style="text;strokeColor=none;fillColor=none;align=left;verticalAlign=middle;spacingLeft=4;spacingRight=4;overflow=hidden;points=[[0,0.5],[1,0.5]];portConstraint=eastwest;rotatable=0;whiteSpace=wrap;html=1;" vertex="1" parent="YPkfwmVV87nAmRGDqk8z-76">
                    <mxGeometry y="120" width="140" height="30" as="geometry"/>
                </mxCell>
                <mxCell id="YPkfwmVV87nAmRGDqk8z-86" value="Temperature Types" style="swimlane;fontStyle=0;childLayout=stackLayout;horizontal=1;startSize=30;horizontalStack=0;resizeParent=1;resizeParentMax=0;resizeLast=0;collapsible=1;marginBottom=0;whiteSpace=wrap;html=1;" vertex="1" parent="1">
                    <mxGeometry x="360" y="360" width="140" height="150" as="geometry"/>
                </mxCell>
                <mxCell id="YPkfwmVV87nAmRGDqk8z-87" value="Hot" style="text;strokeColor=none;fillColor=none;align=left;verticalAlign=middle;spacingLeft=4;spacingRight=4;overflow=hidden;points=[[0,0.5],[1,0.5]];portConstraint=eastwest;rotatable=0;whiteSpace=wrap;html=1;" vertex="1" parent="YPkfwmVV87nAmRGDqk8z-86">
                    <mxGeometry y="30" width="140" height="30" as="geometry"/>
                </mxCell>
                <mxCell id="YPkfwmVV87nAmRGDqk8z-88" value="Temperate" style="text;strokeColor=none;fillColor=none;align=left;verticalAlign=middle;spacingLeft=4;spacingRight=4;overflow=hidden;points=[[0,0.5],[1,0.5]];portConstraint=eastwest;rotatable=0;whiteSpace=wrap;html=1;" vertex="1" parent="YPkfwmVV87nAmRGDqk8z-86">
                    <mxGeometry y="60" width="140" height="30" as="geometry"/>
                </mxCell>
                <mxCell id="YPkfwmVV87nAmRGDqk8z-89" value="Cold" style="text;strokeColor=none;fillColor=none;align=left;verticalAlign=middle;spacingLeft=4;spacingRight=4;overflow=hidden;points=[[0,0.5],[1,0.5]];portConstraint=eastwest;rotatable=0;whiteSpace=wrap;html=1;" vertex="1" parent="YPkfwmVV87nAmRGDqk8z-86">
                    <mxGeometry y="90" width="140" height="30" as="geometry"/>
                </mxCell>
                <mxCell id="YPkfwmVV87nAmRGDqk8z-106" value="Arctic" style="text;strokeColor=none;fillColor=none;align=left;verticalAlign=middle;spacingLeft=4;spacingRight=4;overflow=hidden;points=[[0,0.5],[1,0.5]];portConstraint=eastwest;rotatable=0;whiteSpace=wrap;html=1;" vertex="1" parent="YPkfwmVV87nAmRGDqk8z-86">
                    <mxGeometry y="120" width="140" height="30" as="geometry"/>
                </mxCell>
                <mxCell id="YPkfwmVV87nAmRGDqk8z-91" value="Moisture Types" style="swimlane;fontStyle=0;childLayout=stackLayout;horizontal=1;startSize=30;horizontalStack=0;resizeParent=1;resizeParentMax=0;resizeLast=0;collapsible=1;marginBottom=0;whiteSpace=wrap;html=1;" vertex="1" parent="1">
                    <mxGeometry x="520" y="360" width="140" height="120" as="geometry"/>
                </mxCell>
                <mxCell id="YPkfwmVV87nAmRGDqk8z-92" value="Wet" style="text;strokeColor=none;fillColor=none;align=left;verticalAlign=middle;spacingLeft=4;spacingRight=4;overflow=hidden;points=[[0,0.5],[1,0.5]];portConstraint=eastwest;rotatable=0;whiteSpace=wrap;html=1;" vertex="1" parent="YPkfwmVV87nAmRGDqk8z-91">
                    <mxGeometry y="30" width="140" height="30" as="geometry"/>
                </mxCell>
                <mxCell id="YPkfwmVV87nAmRGDqk8z-93" value="Mesic" style="text;strokeColor=none;fillColor=none;align=left;verticalAlign=middle;spacingLeft=4;spacingRight=4;overflow=hidden;points=[[0,0.5],[1,0.5]];portConstraint=eastwest;rotatable=0;whiteSpace=wrap;html=1;" vertex="1" parent="YPkfwmVV87nAmRGDqk8z-91">
                    <mxGeometry y="60" width="140" height="30" as="geometry"/>
                </mxCell>
                <mxCell id="YPkfwmVV87nAmRGDqk8z-94" value="Dry" style="text;strokeColor=none;fillColor=none;align=left;verticalAlign=middle;spacingLeft=4;spacingRight=4;overflow=hidden;points=[[0,0.5],[1,0.5]];portConstraint=eastwest;rotatable=0;whiteSpace=wrap;html=1;" vertex="1" parent="YPkfwmVV87nAmRGDqk8z-91">
                    <mxGeometry y="90" width="140" height="30" as="geometry"/>
                </mxCell>
                <mxCell id="YPkfwmVV87nAmRGDqk8z-96" value="Height Types" style="swimlane;fontStyle=0;childLayout=stackLayout;horizontal=1;startSize=30;horizontalStack=0;resizeParent=1;resizeParentMax=0;resizeLast=0;collapsible=1;marginBottom=0;whiteSpace=wrap;html=1;" vertex="1" parent="1">
                    <mxGeometry x="200" y="360" width="140" height="150" as="geometry">
                        <mxRectangle x="230" y="310" width="140" height="30" as="alternateBounds"/>
                    </mxGeometry>
                </mxCell>
                <mxCell id="YPkfwmVV87nAmRGDqk8z-97" value="Ocean" style="text;strokeColor=none;fillColor=none;align=left;verticalAlign=middle;spacingLeft=4;spacingRight=4;overflow=hidden;points=[[0,0.5],[1,0.5]];portConstraint=eastwest;rotatable=0;whiteSpace=wrap;html=1;" vertex="1" parent="YPkfwmVV87nAmRGDqk8z-96">
                    <mxGeometry y="30" width="140" height="30" as="geometry"/>
                </mxCell>
                <mxCell id="YPkfwmVV87nAmRGDqk8z-98" value="Lowlands" style="text;strokeColor=none;fillColor=none;align=left;verticalAlign=middle;spacingLeft=4;spacingRight=4;overflow=hidden;points=[[0,0.5],[1,0.5]];portConstraint=eastwest;rotatable=0;whiteSpace=wrap;html=1;" vertex="1" parent="YPkfwmVV87nAmRGDqk8z-96">
                    <mxGeometry y="60" width="140" height="30" as="geometry"/>
                </mxCell>
                <mxCell id="YPkfwmVV87nAmRGDqk8z-99" value="Midlands" style="text;strokeColor=none;fillColor=none;align=left;verticalAlign=middle;spacingLeft=4;spacingRight=4;overflow=hidden;points=[[0,0.5],[1,0.5]];portConstraint=eastwest;rotatable=0;whiteSpace=wrap;html=1;" vertex="1" parent="YPkfwmVV87nAmRGDqk8z-96">
                    <mxGeometry y="90" width="140" height="30" as="geometry"/>
                </mxCell>
                <mxCell id="YPkfwmVV87nAmRGDqk8z-100" value="Highlands" style="text;strokeColor=none;fillColor=none;align=left;verticalAlign=middle;spacingLeft=4;spacingRight=4;overflow=hidden;points=[[0,0.5],[1,0.5]];portConstraint=eastwest;rotatable=0;whiteSpace=wrap;html=1;" vertex="1" parent="YPkfwmVV87nAmRGDqk8z-96">
                    <mxGeometry y="120" width="140" height="30" as="geometry"/>
                </mxCell>
                <mxCell id="YPkfwmVV87nAmRGDqk8z-101" value="Ground Types" style="swimlane;fontStyle=0;childLayout=stackLayout;horizontal=1;startSize=30;horizontalStack=0;resizeParent=1;resizeParentMax=0;resizeLast=0;collapsible=1;marginBottom=0;whiteSpace=wrap;html=1;" vertex="1" parent="1">
                    <mxGeometry x="680" y="360" width="140" height="120" as="geometry"/>
                </mxCell>
                <mxCell id="YPkfwmVV87nAmRGDqk8z-102" value="Unstable Hard" style="text;strokeColor=none;fillColor=none;align=left;verticalAlign=middle;spacingLeft=4;spacingRight=4;overflow=hidden;points=[[0,0.5],[1,0.5]];portConstraint=eastwest;rotatable=0;whiteSpace=wrap;html=1;" vertex="1" parent="YPkfwmVV87nAmRGDqk8z-101">
                    <mxGeometry y="30" width="140" height="30" as="geometry"/>
                </mxCell>
                <mxCell id="YPkfwmVV87nAmRGDqk8z-103" value="Stable" style="text;strokeColor=none;fillColor=none;align=left;verticalAlign=middle;spacingLeft=4;spacingRight=4;overflow=hidden;points=[[0,0.5],[1,0.5]];portConstraint=eastwest;rotatable=0;whiteSpace=wrap;html=1;" vertex="1" parent="YPkfwmVV87nAmRGDqk8z-101">
                    <mxGeometry y="60" width="140" height="30" as="geometry"/>
                </mxCell>
                <mxCell id="YPkfwmVV87nAmRGDqk8z-104" value="Unstable Soft" style="text;strokeColor=none;fillColor=none;align=left;verticalAlign=middle;spacingLeft=4;spacingRight=4;overflow=hidden;points=[[0,0.5],[1,0.5]];portConstraint=eastwest;rotatable=0;whiteSpace=wrap;html=1;" vertex="1" parent="YPkfwmVV87nAmRGDqk8z-101">
                    <mxGeometry y="90" width="140" height="30" as="geometry"/>
                </mxCell>
            </root>
        </mxGraphModel>
    </diagram>
    <diagram id="OzycxgkMF5Cx8lGlnGH6" name="Rails">
        <mxGraphModel dx="1079" dy="613" grid="1" gridSize="10" guides="1" tooltips="1" connect="1" arrows="1" fold="1" page="1" pageScale="1" pageWidth="850" pageHeight="1100" math="0" shadow="0">
            <root>
                <mxCell id="0"/>
                <mxCell id="1" parent="0"/>
                <mxCell id="5XfO2eoXUw8bzg-eXop2-1" value="Rail Layer" style="swimlane;whiteSpace=wrap;html=1;startSize=23;" parent="1" vertex="1">
                    <mxGeometry x="220" y="50" width="350" height="200" as="geometry"/>
                </mxCell>
                <mxCell id="5XfO2eoXUw8bzg-eXop2-8" value="Rails_id_ob" style="swimlane;fontStyle=0;childLayout=stackLayout;horizontal=1;startSize=30;horizontalStack=0;resizeParent=1;resizeParentMax=0;resizeLast=0;collapsible=1;marginBottom=0;whiteSpace=wrap;html=1;" parent="5XfO2eoXUw8bzg-eXop2-1" vertex="1">
                    <mxGeometry x="30" y="50" width="140" height="120" as="geometry"/>
                </mxCell>
                <mxCell id="5XfO2eoXUw8bzg-eXop2-9" value="Rail.id&lt;span style=&quot;white-space: pre;&quot;&gt;&#9;&lt;/span&gt;Rail" style="text;strokeColor=none;fillColor=none;align=left;verticalAlign=middle;spacingLeft=4;spacingRight=4;overflow=hidden;points=[[0,0.5],[1,0.5]];portConstraint=eastwest;rotatable=0;whiteSpace=wrap;html=1;" parent="5XfO2eoXUw8bzg-eXop2-8" vertex="1">
                    <mxGeometry y="30" width="140" height="30" as="geometry"/>
                </mxCell>
                <mxCell id="5XfO2eoXUw8bzg-eXop2-10" value="Rail.id&lt;span style=&quot;white-space: pre;&quot;&gt;&#9;&lt;/span&gt;Rail" style="text;strokeColor=none;fillColor=none;align=left;verticalAlign=middle;spacingLeft=4;spacingRight=4;overflow=hidden;points=[[0,0.5],[1,0.5]];portConstraint=eastwest;rotatable=0;whiteSpace=wrap;html=1;" parent="5XfO2eoXUw8bzg-eXop2-8" vertex="1">
                    <mxGeometry y="60" width="140" height="30" as="geometry"/>
                </mxCell>
                <mxCell id="5XfO2eoXUw8bzg-eXop2-11" value="Rail.id&lt;span style=&quot;white-space: pre;&quot;&gt;&#9;&lt;/span&gt;Rail" style="text;strokeColor=none;fillColor=none;align=left;verticalAlign=middle;spacingLeft=4;spacingRight=4;overflow=hidden;points=[[0,0.5],[1,0.5]];portConstraint=eastwest;rotatable=0;whiteSpace=wrap;html=1;" parent="5XfO2eoXUw8bzg-eXop2-8" vertex="1">
                    <mxGeometry y="90" width="140" height="30" as="geometry"/>
                </mxCell>
                <mxCell id="5XfO2eoXUw8bzg-eXop2-12" value="Rail_nodes_id_ob" style="swimlane;fontStyle=0;childLayout=stackLayout;horizontal=1;startSize=30;horizontalStack=0;resizeParent=1;resizeParentMax=0;resizeLast=0;collapsible=1;marginBottom=0;whiteSpace=wrap;html=1;" parent="5XfO2eoXUw8bzg-eXop2-1" vertex="1">
                    <mxGeometry x="180" y="50" width="140" height="120" as="geometry"/>
                </mxCell>
                <mxCell id="5XfO2eoXUw8bzg-eXop2-13" value="id&lt;span style=&quot;white-space: pre;&quot;&gt;&#9;&lt;/span&gt;&lt;span style=&quot;white-space: pre;&quot;&gt;&#9;&lt;/span&gt;RailNode" style="text;strokeColor=none;fillColor=none;align=left;verticalAlign=middle;spacingLeft=4;spacingRight=4;overflow=hidden;points=[[0,0.5],[1,0.5]];portConstraint=eastwest;rotatable=0;whiteSpace=wrap;html=1;" parent="5XfO2eoXUw8bzg-eXop2-12" vertex="1">
                    <mxGeometry y="30" width="140" height="30" as="geometry"/>
                </mxCell>
                <mxCell id="5XfO2eoXUw8bzg-eXop2-14" value="id&lt;span style=&quot;border-color: var(--border-color);&quot;&gt;&#9;&lt;span style=&quot;white-space: pre;&quot;&gt;&#9;&lt;/span&gt;&lt;span style=&quot;white-space: pre;&quot;&gt;&#9;&lt;/span&gt;&lt;/span&gt;RailNode" style="text;strokeColor=none;fillColor=none;align=left;verticalAlign=middle;spacingLeft=4;spacingRight=4;overflow=hidden;points=[[0,0.5],[1,0.5]];portConstraint=eastwest;rotatable=0;whiteSpace=wrap;html=1;" parent="5XfO2eoXUw8bzg-eXop2-12" vertex="1">
                    <mxGeometry y="60" width="140" height="30" as="geometry"/>
                </mxCell>
                <mxCell id="5XfO2eoXUw8bzg-eXop2-15" value="id&lt;span style=&quot;border-color: var(--border-color);&quot;&gt;&#9;&lt;span style=&quot;white-space: pre;&quot;&gt;&#9;&lt;/span&gt;&lt;/span&gt;&lt;span style=&quot;border-color: var(--border-color);&quot;&gt;&#9;&lt;span style=&quot;white-space: pre;&quot;&gt;&#9;&lt;/span&gt;&lt;/span&gt;RailNode" style="text;strokeColor=none;fillColor=none;align=left;verticalAlign=middle;spacingLeft=4;spacingRight=4;overflow=hidden;points=[[0,0.5],[1,0.5]];portConstraint=eastwest;rotatable=0;whiteSpace=wrap;html=1;" parent="5XfO2eoXUw8bzg-eXop2-12" vertex="1">
                    <mxGeometry y="90" width="140" height="30" as="geometry"/>
                </mxCell>
                <mxCell id="5XfO2eoXUw8bzg-eXop2-6" value="Rail&lt;br&gt;.id &quot;{node_1.id}{node_2.id}&quot;&lt;br&gt;.node_1&lt;br&gt;.node_2" style="rounded=0;whiteSpace=wrap;html=1;" parent="1" vertex="1">
                    <mxGeometry x="20" y="80" width="180" height="60" as="geometry"/>
                </mxCell>
                <mxCell id="5XfO2eoXUw8bzg-eXop2-4" value="Rail Node&lt;br&gt;.id &quot;{posx}{posy}&quot;" style="rounded=0;whiteSpace=wrap;html=1;" parent="1" vertex="1">
                    <mxGeometry x="20" y="160" width="180" height="60" as="geometry"/>
                </mxCell>
            </root>
        </mxGraphModel>
    </diagram>
</mxfile>